<?xml version="1.0" encoding="UTF-8" standalone="no"?>
<!-- Created with Inkscape (http://www.inkscape.org/) -->

<svg
   xmlns:dc="http://purl.org/dc/elements/1.1/"
   xmlns:cc="http://creativecommons.org/ns#"
   xmlns:rdf="http://www.w3.org/1999/02/22-rdf-syntax-ns#"
   xmlns:svg="http://www.w3.org/2000/svg"
   xmlns="http://www.w3.org/2000/svg"
   xmlns:sodipodi="http://sodipodi.sourceforge.net/DTD/sodipodi-0.dtd"
   xmlns:inkscape="http://www.inkscape.org/namespaces/inkscape"
   width="27"
   height="27"
   id="svg2"
   version="1.1"
   inkscape:version="0.48.4 r9939"
   sodipodi:docname="New document 1">
  <defs
     id="defs4" />
  <sodipodi:namedview
     id="base"
     pagecolor="#ffffff"
     bordercolor="#666666"
     borderopacity="1.0"
     inkscape:pageopacity="0.0"
     inkscape:pageshadow="2"
     inkscape:zoom="5.6"
     inkscape:cx="13.0492"
     inkscape:cy="10.719795"
     inkscape:document-units="px"
     inkscape:current-layer="layer1"
     showgrid="false"
     inkscape:window-width="729"
     inkscape:window-height="611"
     inkscape:window-x="830"
     inkscape:window-y="365"
     inkscape:window-maximized="0" />
  <metadata
     id="metadata7">
    <rdf:RDF>
      <cc:Work
         rdf:about="">
        <dc:format>image/svg+xml</dc:format>
        <dc:type
           rdf:resource="http://purl.org/dc/dcmitype/StillImage" />
        <dc:title></dc:title>
      </cc:Work>
    </rdf:RDF>
  </metadata>
  <g
     inkscape:label="Layer 1"
     inkscape:groupmode="layer"
     id="layer1"
     transform="translate(0,-1025.3622)">
    <rect
       style="fill:#f1f1f1;fill-opacity:1;stroke:none"
       id="rect3784"
       width="28.5"
       height="28.32143"
       x="-0.39285713"
       y="1024.9694" />
    <path
       sodipodi:type="arc"
       style="fill:none;stroke:#393939;stroke-width:2.29853106;stroke-miterlimit:4;stroke-opacity:1;stroke-dasharray:none"
       id="path2985"
       sodipodi:cx="5.5357141"
       sodipodi:cy="5.9285712"
       sodipodi:rx="9.6428576"
       sodipodi:ry="9.6428576"
       d="m 15.178572,5.9285712 a 9.6428576,9.6428576 0 1 1 -19.2857154,0 9.6428576,9.6428576 0 1 1 19.2857154,0 z"
       transform="matrix(0.7914284,0,0,0.7914284,5.2931956,1030.4155)" />
    <path
       style="font-size:medium;font-style:normal;font-variant:normal;font-weight:normal;font-stretch:normal;text-indent:0;text-align:start;text-decoration:none;line-height:normal;letter-spacing:normal;word-spacing:normal;text-transform:none;direction:ltr;block-progression:tb;writing-mode:lr-tb;text-anchor:start;baseline-shift:baseline;color:#000000;fill:#393939;fill-opacity:1;fill-rule:nonzero;stroke:none;stroke-width:2.2750001;marker:none;visibility:visible;display:inline;overflow:visible;enable-background:accumulate;font-family:Sans;-inkscape-font-specification:Sans"
       d="m 16.754778,1039.3659 -2.751813,2.7518 1.197869,1.1979 0.775332,-0.7754 c 0,0 5.973231,8.8132 8.394571,8.8447 2.421339,0.031 1.682712,0.7701 1.651088,-1.6512 -0.03163,-2.4213 -8.844457,-8.3947 -8.844457,-8.3947 l 0.775277,-0.7753 z"
       id="path2987"
       inkscape:connector-curvature="0"
       sodipodi:nodetypes="cccczzccc" />
    <path
       style="fill:#c5c5c5;fill-opacity:1;stroke:none"
       d="m 9.6826162,1029.0445 c -1.1730462,0 -2.2756211,0.3322 -3.199922,0.9143 0.8189018,-0.4194 1.7595016,-0.6531 2.74279,-0.6531 3.3121298,0 5.9753648,2.6959 5.9753648,6.008 0,2.0701 -1.049584,3.8855 -2.644834,4.9632 1.847597,-1.0219 3.101965,-2.9962 3.101965,-5.257 0,-3.3121 -2.663234,-5.9754 -5.9753638,-5.9754 z"
       id="path3763"
       inkscape:connector-curvature="0" />
  </g>
</svg>
